<svg width="21" height="21" viewBox="0 0 21 21" fill="none" xmlns="http://www.w3.org/2000/svg">
<g clip-path="url(#clip0_1660_1513)">
<path d="M20.7373 10.741C20.7373 5.22009 16.2618 0.744629 10.7409 0.744629C5.21997 0.744629 0.744507 5.22009 0.744507 10.741C0.744507 15.7305 4.39985 19.866 9.17895 20.6158V13.6308H6.64071V10.741H9.17895V8.53847C9.17895 6.03355 10.6713 4.64947 12.9547 4.64947C14.048 4.64947 15.1922 4.84481 15.1922 4.84481V7.30475H13.9318C12.6902 7.30475 12.3028 8.07531 12.3028 8.86669V10.741H15.0751L14.632 13.6308H12.3028V20.6158C17.0819 19.866 20.7373 15.73 20.7373 10.741Z" fill="white"/>
</g>
<defs>
<clipPath id="clip0_1660_1513">
<rect width="19.9928" height="19.9928" fill="white" transform="translate(0.744507 0.744629)"/>
</clipPath>
</defs>
</svg>
