<svg width="359" height="116" viewBox="0 0 359 116" fill="none" xmlns="http://www.w3.org/2000/svg">
<path d="M55.5592 44.7969C54.2515 44.7969 53.1777 45.8628 53.1777 47.1611C53.1777 48.4594 54.2515 49.5253 55.5592 49.5253C56.8669 49.5253 57.9407 48.4594 57.9407 47.1611C57.9407 45.8628 56.8669 44.7969 55.5592 44.7969Z" fill="url(#paint0_linear_1173_829)"/>
<path d="M27.3763 44.7969C26.0686 44.7969 24.9949 45.8628 24.9949 47.1611C24.9949 48.4594 26.0686 49.5253 27.3763 49.5253C28.6841 49.5253 29.7578 48.4594 29.7578 47.1611C29.7578 45.8628 28.6841 44.7969 27.3763 44.7969Z" fill="url(#paint1_linear_1173_829)"/>
<path d="M71.9237 65.1301V40.176C71.9237 36.7048 68.5099 33.9033 64.3113 33.9033H57.0706V42.0209C59.3144 42.6632 60.9525 44.7268 60.9525 47.1593C60.9525 50.1112 58.5297 52.5164 55.5564 52.5164C52.583 52.5164 50.1602 50.1112 50.1602 47.1593C50.1602 44.7268 51.7983 42.6632 54.0421 42.0209V33.9033H28.8647V42.0209C31.1085 42.6632 32.7467 44.7268 32.7467 47.1593C32.7467 50.1112 30.3239 52.5164 27.3505 52.5164C24.3771 52.5164 21.9544 50.1112 21.9544 47.1593C21.9544 44.7268 23.6063 42.6632 25.8363 42.0209V33.9033H18.5956C14.3833 33.9033 10.9832 36.7048 10.9832 40.176V65.1301C14.4108 65.1301 17.1777 67.8906 17.1777 71.2798C17.1777 74.6689 14.397 77.4295 10.9832 77.4295V79.616C10.9832 83.0735 14.397 85.8887 18.5956 85.8887H64.2838C68.4961 85.8887 71.8962 83.0872 71.8962 79.616V77.4295C68.4686 77.4295 65.7017 74.6689 65.7017 71.2798C65.7017 67.8906 68.4823 65.1301 71.8962 65.1301H71.9237Z" fill="white"/>
<path d="M20.8706 85.7803V89.1148C20.8706 90.1397 21.6965 90.9597 22.729 90.9597H23.1557C23.1557 90.9597 23.1557 91.0553 23.1557 91.11V102.015C23.1557 103.027 23.9816 103.86 25.0141 103.86C25.5234 103.86 25.9914 103.655 26.3356 103.327C26.6659 102.999 26.8724 102.535 26.8724 102.029V91.1237C26.8724 91.1237 26.8724 91.028 26.8724 90.9733H27.2992C28.3178 90.9733 29.1575 90.1534 29.1575 89.1284V85.7939H20.8981L20.8706 85.7803Z" fill="white"/>
<path d="M37.3494 85.7803V89.1148C37.3494 90.1397 38.1753 90.9597 39.2077 90.9597H39.6345C39.6345 90.9597 39.6345 91.0553 39.6345 91.11V102.015C39.6345 103.027 40.4604 103.86 41.4928 103.86C42.0022 103.86 42.4702 103.655 42.8143 103.327C43.1447 102.999 43.3512 102.535 43.3512 102.029V91.1237C43.3512 91.1237 43.3512 91.028 43.3512 90.9733H43.7779C44.7966 90.9733 45.6363 90.1534 45.6363 89.1284V85.7939H37.3769L37.3494 85.7803Z" fill="white"/>
<path d="M53.8259 85.7803V89.1148C53.8259 90.1397 54.6519 90.9597 55.6843 90.9597H56.111C56.111 90.9597 56.111 91.0553 56.111 91.11V102.015C56.111 103.027 56.937 103.86 57.9694 103.86C58.4787 103.86 58.9468 103.655 59.2909 103.327C59.6213 102.999 59.8278 102.535 59.8278 102.029V91.1237C59.8278 91.1237 59.8278 91.028 59.8278 90.9733H60.2545C61.2732 90.9733 62.1129 90.1534 62.1129 89.1284V85.7939H53.8535L53.8259 85.7803Z" fill="white"/>
<path d="M57.0562 26.4162V30.2017H54.0553V26.4162C54.0553 19.5285 48.4113 13.9118 41.4734 13.9118C34.5356 13.9118 28.8779 19.5149 28.8779 26.4162V30.2017H25.877V26.4162C25.877 17.8749 32.8699 10.9326 41.4734 10.9326C50.077 10.9326 57.0699 17.8749 57.0699 26.4162H57.0562Z" fill="url(#paint2_linear_1173_829)"/>
<path d="M124.028 52.5999C124.028 58.0799 119.141 60.6628 112.437 60.6628H98.9465L104.095 35.1074H116.525C122.073 35.1074 125.17 37.1846 125.17 40.9428C125.17 44.1543 123.298 46.3409 120.572 47.4751C122.747 48.3498 124.028 50.0717 124.028 52.5862V52.5999ZM118.108 52.5316C118.108 50.632 116.594 49.9077 114.254 49.9077H107.041L105.788 56.2214H112.809C116.085 56.2214 118.108 54.9778 118.108 52.5316ZM109.106 39.5762L107.894 45.6029H113.965C117.048 45.6029 118.934 44.3593 118.934 41.9814C118.934 40.3005 117.53 39.5762 115.149 39.5762H109.119H109.106Z" fill="white"/>
<path d="M149.368 47.4481C149.368 48.1724 149.3 48.9514 149.107 49.785L146.904 60.6631H141.164L143.298 50.154C143.408 49.6757 143.449 49.211 143.449 48.8011C143.449 46.7922 142.348 45.6579 140.063 45.6579C137.158 45.6579 135.135 47.2705 134.433 50.7006L132.45 60.6631H126.71L132.161 33.5771H137.902L136.057 42.8154C137.792 41.3941 139.911 40.7381 142.169 40.7381C146.464 40.7381 149.382 43.075 149.382 47.4618L149.368 47.4481Z" fill="white"/>
<path d="M176.364 41.0253L172.427 60.6633H166.99L167.362 58.7227C165.779 60.144 163.728 60.9503 161.291 60.9503C156.693 60.9503 152.756 57.7388 152.756 52.1494C152.756 45.535 157.574 40.7246 163.686 40.7246C166.55 40.7246 168.835 41.6402 170.115 43.6765L170.638 41.0116H176.378L176.364 41.0253ZM168.862 49.7852C168.862 47.1203 167.21 45.4394 164.333 45.4394C160.947 45.4394 158.524 48.0632 158.524 51.9034C158.524 54.5683 160.176 56.2492 163.053 56.2492C166.439 56.2492 168.862 53.6253 168.862 49.7852Z" fill="white"/>
<path d="M194.012 40.7383L192.979 45.9997C192.456 45.9587 192.126 45.9314 191.658 45.9314C188.271 45.9314 186.11 47.5029 185.367 51.1928L183.453 60.6906H177.713L181.65 41.0526H187.101L186.62 43.3895C188.382 41.4899 190.818 40.7656 194.012 40.7656V40.7383Z" fill="white"/>
<path d="M217.264 41.0253L213.327 60.6633H207.876L208.247 58.7227C206.664 60.144 204.613 60.9503 202.177 60.9503C197.579 60.9503 193.642 57.7388 193.642 52.1494C193.642 45.535 198.46 40.7246 204.572 40.7246C207.435 40.7246 209.72 41.6402 211.014 43.6765L211.523 41.0116H217.264V41.0253ZM209.761 49.7852C209.761 47.1203 208.11 45.4394 205.233 45.4394C201.846 45.4394 199.423 48.0632 199.423 51.9034C199.423 54.5683 201.075 56.2492 203.952 56.2492C207.339 56.2492 209.761 53.6253 209.761 49.7852Z" fill="white"/>
<path d="M226.418 53.7348C226.349 54.0218 226.349 54.2815 226.349 54.5411C226.349 55.7437 227.01 56.4407 228.441 56.4407C229.212 56.4407 230.024 56.181 230.754 55.7437L231.607 59.8025C230.176 60.6771 228.4 60.9641 226.679 60.9641C223.004 60.9641 220.499 58.9142 220.499 55.4841C220.499 54.9374 220.567 54.3498 220.678 53.7622L222.261 45.8359H219.205L220.086 41.4491H223.142L224.105 36.666H229.845L228.882 41.4491H233.81L232.929 45.8359H228.001L226.418 53.7212V53.7348Z" fill="white"/>
<path d="M250.921 40.7383L249.888 45.9997C249.365 45.9587 249.035 45.9314 248.567 45.9314C245.181 45.9314 243.019 47.5029 242.276 51.1928L240.363 60.6906H234.622L238.559 41.0526H244.01L243.529 43.3895C245.291 41.4899 247.727 40.7656 250.921 40.7656V40.7383Z" fill="white"/>
<path d="M250.509 52.163C250.509 45.6307 255.506 40.7383 262.457 40.7383C268.528 40.7383 272.424 44.2094 272.424 49.5392C272.424 56.0715 267.454 60.9639 260.475 60.9639C254.446 60.9639 250.509 57.4654 250.509 52.163ZM266.615 49.7852C266.615 47.1203 264.99 45.4394 262.127 45.4394C258.741 45.4394 256.318 48.0632 256.318 51.9034C256.318 54.5683 257.97 56.2492 260.847 56.2492C264.192 56.2492 266.628 53.6253 266.628 49.7852H266.615Z" fill="white"/>
<path d="M296.853 47.421C296.853 48.1453 296.784 48.9515 296.591 49.7988L294.389 60.677H288.649L290.782 50.1678C290.892 49.6895 290.934 49.2249 290.934 48.8149C290.934 46.806 289.832 45.6717 287.547 45.6717C284.643 45.6717 282.619 47.2843 281.917 50.7145L279.935 60.677H274.195L278.132 41.0389H283.569L283.128 43.1572C284.932 41.5172 287.217 40.752 289.64 40.752C293.976 40.752 296.853 43.0888 296.853 47.4346V47.421Z" fill="white"/>
<path d="M303.548 41.0244H309.247L305.31 60.6624H299.611L303.548 41.0244ZM304.029 35.3257C304.029 33.4261 305.544 31.9365 307.815 31.9365C309.838 31.9365 311.201 33.1801 311.201 34.779C311.201 36.8563 309.66 38.2775 307.374 38.2775C305.351 38.2775 304.029 36.9656 304.029 35.3257Z" fill="white"/>
<path d="M333.072 45.425L341.373 60.6762H330.113L326.272 52.791L319.568 60.6762H307.124L321.688 44.81L313.883 29.9961H325.006L328.805 37.6627L335.426 29.9961H347.168L333.086 45.4113L333.072 45.425Z" fill="#F7941D"/>
<path d="M104.62 87.3642V90.9994H103.519V87.3642L99.2793 80.4766H100.477L104.111 86.3803L107.745 80.4766H108.86L104.62 87.3642Z" fill="white"/>
<path d="M111.241 85.7535C111.241 82.6924 113.595 80.3965 116.816 80.3965C120.037 80.3965 122.378 82.665 122.378 85.7535C122.378 88.8421 119.996 91.1106 116.816 91.1106C113.636 91.1106 111.241 88.8284 111.241 85.7535ZM121.249 85.7535C121.249 83.239 119.349 81.3941 116.816 81.3941C114.283 81.3941 112.342 83.239 112.342 85.7535C112.342 88.2681 114.256 90.113 116.816 90.113C119.377 90.113 121.249 88.2681 121.249 85.7535Z" fill="white"/>
<path d="M126.84 86.5199V80.4932H127.955V86.4789C127.955 88.9797 129.138 90.114 131.203 90.114C133.268 90.114 134.466 88.9661 134.466 86.4789V80.4932H135.553V86.5199C135.553 89.54 133.915 91.1116 131.203 91.1116C128.491 91.1116 126.84 89.5537 126.84 86.5199Z" fill="white"/>
<path d="M148.217 91.014L145.795 87.6249C145.519 87.6522 145.244 87.6658 144.941 87.6658H142.092V91.0003H140.977V80.4775H144.941C147.639 80.4775 149.277 81.8305 149.277 84.0854C149.277 85.7389 148.396 86.9006 146.854 87.3925L149.442 91.0003H148.217V91.014ZM148.162 84.099C148.162 82.4181 147.047 81.4478 144.927 81.4478H142.105V86.7229H144.927C147.047 86.7229 148.162 85.7389 148.162 84.0854V84.099Z" fill="white"/>
<path d="M159.034 85.7535C159.034 82.6924 161.402 80.3965 164.609 80.3965C167.816 80.3965 170.17 82.665 170.17 85.7535C170.17 88.8421 167.789 91.1106 164.609 91.1106C161.429 91.1106 159.034 88.8284 159.034 85.7535ZM169.042 85.7535C169.042 83.239 167.142 81.3941 164.609 81.3941C162.076 81.3941 160.135 83.239 160.135 85.7535C160.135 88.2681 162.049 90.113 164.609 90.113C167.169 90.113 169.042 88.2681 169.042 85.7535Z" fill="white"/>
<path d="M188.963 80.4932L185.384 91.016H184.2L181.103 82.0374L177.978 91.016H176.808L173.229 80.4932H174.385L177.441 89.54L180.607 80.4932H181.654L184.778 89.5947L187.889 80.4932H188.963Z" fill="white"/>
<path d="M201.904 80.4932V91.016H200.982L194.168 82.4747V91.016H193.052V80.4932H193.975L200.803 89.0344V80.4932H201.904Z" fill="white"/>
<path d="M220.912 90.0437V91.0003H213.409V80.4775H220.678V81.4342H214.524V85.1786H220.003V86.1216H214.524V90.0301H220.898L220.912 90.0437Z" fill="white"/>
<path d="M225.595 80.4932H226.71V90.0594H232.643V91.016H225.581V80.4932H225.595Z" fill="white"/>
<path d="M244.052 90.0437V91.0003H236.55V80.4775H243.818V81.4342H237.665V85.1786H243.144V86.1216H237.665V90.0301H244.038L244.052 90.0437Z" fill="white"/>
<path d="M247.73 85.7535C247.73 82.665 250.084 80.3965 253.292 80.3965C254.833 80.3965 256.224 80.9021 257.173 81.9271L256.458 82.6377C255.59 81.7631 254.53 81.3941 253.319 81.3941C250.759 81.3941 248.831 83.2527 248.831 85.7535C248.831 88.2544 250.759 90.113 253.319 90.113C254.53 90.113 255.59 89.744 256.458 88.8557L257.173 89.5664C256.237 90.5913 254.833 91.1106 253.278 91.1106C250.098 91.1106 247.73 88.8421 247.73 85.7535Z" fill="white"/>
<path d="M263.515 81.4498H259.785V80.4932H268.361V81.4498H264.63V91.016H263.515V81.4498Z" fill="white"/>
<path d="M279.43 91.014L277.007 87.6249C276.732 87.6522 276.457 87.6658 276.154 87.6658H273.304V91.0003H272.189V80.4775H276.154C278.852 80.4775 280.49 81.8305 280.49 84.0854C280.49 85.7389 279.609 86.9006 278.067 87.3925L280.655 91.0003H279.43V91.014ZM279.375 84.099C279.375 82.4181 278.26 81.4478 276.126 81.4478H273.318V86.7229H276.126C278.246 86.7229 279.375 85.7389 279.375 84.0854V84.099Z" fill="white"/>
<path d="M284.248 85.7535C284.248 82.6924 286.602 80.3965 289.823 80.3965C293.044 80.3965 295.384 82.665 295.384 85.7535C295.384 88.8421 293.003 91.1106 289.823 91.1106C286.643 91.1106 284.248 88.8284 284.248 85.7535ZM294.256 85.7535C294.256 83.239 292.356 81.3941 289.823 81.3941C287.29 81.3941 285.349 83.239 285.349 85.7535C285.349 88.2681 287.263 90.113 289.823 90.113C292.384 90.113 294.256 88.2681 294.256 85.7535Z" fill="white"/>
<path d="M308.795 80.4932V91.016H307.872L301.058 82.4747V91.016H299.943V80.4932H300.866L307.693 89.0344V80.4932H308.795Z" fill="white"/>
<path d="M314.285 80.4932H315.4V91.016H314.285V80.4932Z" fill="white"/>
<path d="M319.97 85.7535C319.97 82.665 322.324 80.3965 325.532 80.3965C327.073 80.3965 328.464 80.9021 329.413 81.9271L328.698 82.6377C327.83 81.7631 326.77 81.3941 325.559 81.3941C322.999 81.3941 321.071 83.2527 321.071 85.7535C321.071 88.2544 322.999 90.113 325.559 90.113C326.77 90.113 327.83 89.744 328.698 88.8557L329.413 89.5664C328.477 90.5913 327.073 91.1106 325.518 91.1106C322.338 91.1106 319.97 88.8421 319.97 85.7535Z" fill="white"/>
<path d="M332.76 89.7304L333.2 88.8694C333.957 89.6074 335.306 90.154 336.697 90.154C338.679 90.154 339.546 89.3204 339.546 88.2954C339.546 85.4119 333.021 87.1885 333.021 83.2937C333.021 81.7494 334.232 80.4102 336.931 80.4102C338.128 80.4102 339.367 80.7518 340.221 81.3394L339.835 82.2277C338.927 81.6401 337.867 81.3531 336.931 81.3531C334.99 81.3531 334.122 82.2141 334.122 83.2663C334.122 86.1499 340.647 84.4143 340.647 88.2408C340.647 89.785 339.408 91.1106 336.697 91.1106C335.113 91.1106 333.544 90.5503 332.76 89.744V89.7304Z" fill="white"/>
<defs>
<linearGradient id="paint0_linear_1173_829" x1="83.6687" y1="3.6349" x2="25.9562" y2="94.3345" gradientUnits="userSpaceOnUse">
<stop stop-color="#FFF33B"/>
<stop offset="0.04" stop-color="#FEE62D"/>
<stop offset="0.12" stop-color="#FDD51B"/>
<stop offset="0.2" stop-color="#FDCA0F"/>
<stop offset="0.28" stop-color="#FDC70C"/>
<stop offset="0.67" stop-color="#F3903F"/>
<stop offset="0.89" stop-color="#ED683C"/>
<stop offset="1" stop-color="#E93E3A"/>
</linearGradient>
<linearGradient id="paint1_linear_1173_829" x1="63.6764" y1="-9.07447" x2="5.97762" y2="81.625" gradientUnits="userSpaceOnUse">
<stop stop-color="#FFF33B"/>
<stop offset="0.04" stop-color="#FEE62D"/>
<stop offset="0.12" stop-color="#FDD51B"/>
<stop offset="0.2" stop-color="#FDCA0F"/>
<stop offset="0.28" stop-color="#FDC70C"/>
<stop offset="0.67" stop-color="#F3903F"/>
<stop offset="0.89" stop-color="#ED683C"/>
<stop offset="1" stop-color="#E93E3A"/>
</linearGradient>
<linearGradient id="paint2_linear_1173_829" x1="64.0078" y1="-8.86939" x2="6.2954" y2="81.8302" gradientUnits="userSpaceOnUse">
<stop stop-color="#FFF33B"/>
<stop offset="0.04" stop-color="#FEE62D"/>
<stop offset="0.12" stop-color="#FDD51B"/>
<stop offset="0.2" stop-color="#FDCA0F"/>
<stop offset="0.28" stop-color="#FDC70C"/>
<stop offset="0.67" stop-color="#F3903F"/>
<stop offset="0.89" stop-color="#ED683C"/>
<stop offset="1" stop-color="#E93E3A"/>
</linearGradient>
</defs>
</svg>
