<svg width="49" height="34" viewBox="0 0 49 34" fill="none" xmlns="http://www.w3.org/2000/svg">
<rect x="0.6875" y="1.41113" width="46.75" height="31.625" rx="4.8125" fill="white" stroke="#D9D9D9" stroke-width="1.375"/>
<path d="M37.8083 20.4122H37.8327L39.8395 15.3751H41.2497L36.9138 25.4737H35.5759L37.1882 21.9415L34.3425 15.3751H35.7536L37.8083 20.4122ZM31.0222 15.1466C31.9813 15.1466 32.7395 15.4078 33.2956 15.923C33.8516 16.4381 34.1257 17.158 34.1257 18.0655V22.3907H32.8845V21.4181H32.8278C32.2879 22.2192 31.5787 22.6201 30.6843 22.6202C29.9267 22.6202 29.2819 22.3906 28.7741 21.9327C28.2744 21.5075 27.9914 20.8783 28.0075 20.2159C28.0075 19.4882 28.282 18.9159 28.822 18.4825C29.3619 18.0492 30.0873 17.8361 30.9899 17.836C31.7637 17.836 32.3926 17.9838 32.8923 18.2618V17.9591C32.8923 17.5094 32.6985 17.0845 32.36 16.7901C32.0135 16.4794 31.5704 16.3077 31.111 16.3077C30.3857 16.3077 29.8133 16.618 29.3942 17.2394L28.2497 16.5118C28.8622 15.6042 29.7891 15.1466 31.0222 15.1466ZM24.8727 12.1368C25.7029 12.1205 26.509 12.4397 27.0974 13.0284C28.274 14.1405 28.346 16.013 27.2419 17.215L27.0974 17.3624C26.4929 17.943 25.7512 18.2374 24.8727 18.2374H22.7292V22.3907H21.4313V12.1368H24.8727ZM31.1921 18.8995C30.6682 18.8995 30.2245 19.0299 29.8698 19.2833C29.5232 19.5368 29.3464 19.8561 29.3464 20.2403C29.3464 20.5837 29.5072 20.9025 29.7731 21.0987C30.0633 21.3277 30.4182 21.4507 30.7809 21.4425C31.3291 21.4425 31.853 21.2217 32.2399 20.8292C32.6671 20.4204 32.8844 19.9379 32.8845 19.3819C32.4814 19.055 31.9174 18.8914 31.1921 18.8995ZM22.7292 16.9776H24.905C25.3886 16.994 25.8567 16.798 26.1872 16.4464C26.8642 15.7351 26.8483 14.5903 26.1472 13.9034C25.8167 13.5764 25.3725 13.3966 24.905 13.3966H22.7292V16.9776Z" fill="#3C4043"/>
<path d="M18.2492 17.3379C18.2492 16.9372 18.217 16.5365 18.1525 16.144H12.68V18.409H15.8152C15.6862 19.1367 15.2671 19.7909 14.6546 20.1997V21.6716H16.5244C17.6205 20.6495 18.2492 19.1367 18.2492 17.3379Z" fill="#4285F4"/>
<path d="M12.6802 23.0943C14.2438 23.0943 15.5656 22.571 16.5247 21.6716L14.6548 20.1998C14.131 20.5595 13.462 20.764 12.6802 20.764C11.165 20.764 9.88353 19.7255 9.42413 18.3354H7.49788V19.8563C8.48116 21.8433 10.488 23.0943 12.6802 23.0943Z" fill="#34A853"/>
<path d="M9.42427 18.3354C9.18244 17.6077 9.18244 16.8145 9.42427 16.0786V14.5659H7.49771C6.66743 16.2258 6.66743 18.1882 7.49771 19.8481L9.42427 18.3354Z" fill="#FBBC04"/>
<path d="M12.6802 13.6501C13.5104 13.6337 14.3083 13.9526 14.9047 14.5332L16.565 12.8488C15.5092 11.8512 14.1229 11.3033 12.6802 11.3197C10.488 11.3197 8.48116 12.5789 7.49788 14.5659L9.42413 16.0868C9.88353 14.6885 11.165 13.6501 12.6802 13.6501Z" fill="#EA4335"/>
</svg>
