<svg width="21" height="21" viewBox="0 0 21 21" fill="none" xmlns="http://www.w3.org/2000/svg">
<path d="M14.0394 6.57522C14.0394 6.35429 14.1272 6.1424 14.2834 5.98618C14.4396 5.82995 14.6515 5.74219 14.8725 5.74219C15.0934 5.74219 15.3053 5.82995 15.4615 5.98618C15.6177 6.1424 15.7055 6.35429 15.7055 6.57522C15.7055 6.79615 15.6177 7.00804 15.4615 7.16426C15.3053 7.32049 15.0934 7.40825 14.8725 7.40825C14.6515 7.40825 14.4396 7.32049 14.2834 7.16426C14.1272 7.00804 14.0394 6.79615 14.0394 6.57522Z" fill="white"/>
<path fill-rule="evenodd" clip-rule="evenodd" d="M10.7073 6.78223C9.65783 6.78223 8.65138 7.19911 7.90932 7.94118C7.16725 8.68324 6.75037 9.68969 6.75037 10.7391C6.75037 11.7886 7.16725 12.795 7.90932 13.5371C8.65138 14.2791 9.65783 14.696 10.7073 14.696C11.7567 14.696 12.7632 14.2791 13.5052 13.5371C14.2473 12.795 14.6642 11.7886 14.6642 10.7391C14.6642 9.68969 14.2473 8.68324 13.5052 7.94118C12.7632 7.19911 11.7567 6.78223 10.7073 6.78223ZM7.99991 10.7391C7.99991 10.0211 8.28515 9.33247 8.79288 8.82474C9.30061 8.31701 9.98923 8.03177 10.7073 8.03177C11.4253 8.03177 12.1139 8.31701 12.6217 8.82474C13.1294 9.33247 13.4146 10.0211 13.4146 10.7391C13.4146 11.4572 13.1294 12.1458 12.6217 12.6535C12.1139 13.1612 11.4253 13.4465 10.7073 13.4465C9.98923 13.4465 9.30061 13.1612 8.79288 12.6535C8.28515 12.1458 7.99991 11.4572 7.99991 10.7391Z" fill="white"/>
<path fill-rule="evenodd" clip-rule="evenodd" d="M15.087 3.10386C12.1758 2.78114 9.23793 2.78114 6.32679 3.10386C4.65073 3.29129 3.29706 4.61164 3.10046 6.29603C2.75509 9.24878 2.75509 12.2317 3.10046 15.1845C3.29706 16.8689 4.6499 18.1892 6.32679 18.3767C9.21408 18.699 12.1997 18.699 15.087 18.3767C16.763 18.1892 18.1167 16.8689 18.3133 15.1845C18.6587 12.2317 18.6587 9.24878 18.3133 6.29603C18.1167 4.61164 16.7638 3.29129 15.087 3.10386ZM6.46508 4.34507C9.28431 4.03258 12.1294 4.03258 14.9487 4.34507C16.0566 4.47003 16.9438 5.34388 17.0729 6.44181C17.4069 9.29771 17.4069 12.1828 17.0729 15.0387C16.9438 16.1366 16.0566 17.0113 14.9487 17.1346C12.1294 17.4471 9.28431 17.4471 6.46508 17.1346C5.35714 17.0113 4.46997 16.1366 4.34085 15.0387C4.00684 12.1828 4.00684 9.29771 4.34085 6.44181C4.46997 5.34388 5.35714 4.4692 6.46508 4.34591V4.34507Z" fill="white"/>
</svg>
