<svg width="38" height="56" viewBox="0 0 38 56" fill="none" xmlns="http://www.w3.org/2000/svg">
<path d="M27.3714 20.3794C26.5859 20.3794 25.9409 21.0071 25.9409 21.7716C25.9409 22.5361 26.5859 23.1638 27.3714 23.1638C28.1569 23.1638 28.8018 22.5361 28.8018 21.7716C28.8018 21.0071 28.1569 20.3794 27.3714 20.3794Z" fill="url(#paint0_linear_1160_778)"/>
<path d="M10.4458 20.3794C9.66032 20.3794 9.01538 21.0071 9.01538 21.7716C9.01538 22.5361 9.66032 23.1638 10.4458 23.1638C11.2313 23.1638 11.8763 22.5361 11.8763 21.7716C11.8763 21.0071 11.2313 20.3794 10.4458 20.3794Z" fill="url(#paint1_linear_1160_778)"/>
<path d="M37.2027 32.3535V17.6591C37.2027 15.615 35.1521 13.9653 32.6302 13.9653H28.281V18.7455C29.6288 19.1237 30.6127 20.3388 30.6127 21.7712C30.6127 23.5095 29.1575 24.9258 27.3715 24.9258C25.5855 24.9258 24.1302 23.5095 24.1302 21.7712C24.1302 20.3388 25.1142 19.1237 26.4619 18.7455V13.9653H11.3389V18.7455C12.6867 19.1237 13.6706 20.3388 13.6706 21.7712C13.6706 23.5095 12.2154 24.9258 10.4294 24.9258C8.64337 24.9258 7.18812 23.5095 7.18812 21.7712C7.18812 20.3388 8.18034 19.1237 9.51983 18.7455V13.9653H5.17061C2.64046 13.9653 0.598145 15.615 0.598145 17.6591V32.3535C2.65699 32.3535 4.31896 33.9791 4.31896 35.9748C4.31896 37.9705 2.64873 39.5961 0.598145 39.5961V40.8837C0.598145 42.9196 2.64873 44.5774 5.17061 44.5774H32.6137C35.1438 44.5774 37.1861 42.9277 37.1861 40.8837V39.5961C35.1273 39.5961 33.4653 37.9705 33.4653 35.9748C33.4653 33.9791 35.1356 32.3535 37.1861 32.3535H37.2027Z" fill="#212020"/>
<path d="M6.53491 44.5127V46.4762C6.53491 47.0798 7.03102 47.5626 7.65116 47.5626H7.90748C7.90748 47.5626 7.90748 47.619 7.90748 47.6512V54.0729C7.90748 54.6684 8.40359 55.1593 9.02372 55.1593C9.32966 55.1593 9.61078 55.0386 9.8175 54.8455C10.0159 54.6523 10.14 54.3787 10.14 54.081V47.6592C10.14 47.6592 10.14 47.6029 10.14 47.5707H10.3963C11.0082 47.5707 11.5125 47.0878 11.5125 46.4843V44.5207H6.55145L6.53491 44.5127Z" fill="#212020"/>
<path d="M16.4324 44.5127V46.4762C16.4324 47.0798 16.9285 47.5626 17.5486 47.5626H17.8049C17.8049 47.5626 17.8049 47.619 17.8049 47.6512V54.0729C17.8049 54.6684 18.301 55.1593 18.9212 55.1593C19.2271 55.1593 19.5082 55.0386 19.715 54.8455C19.9134 54.6523 20.0374 54.3787 20.0374 54.081V47.6592C20.0374 47.6592 20.0374 47.6029 20.0374 47.5707H20.2937C20.9056 47.5707 21.41 47.0878 21.41 46.4843V44.5207H16.4489L16.4324 44.5127Z" fill="#212020"/>
<path d="M26.3296 44.5127V46.4762C26.3296 47.0798 26.8257 47.5626 27.4458 47.5626H27.7022C27.7022 47.5626 27.7022 47.619 27.7022 47.6512V54.0729C27.7022 54.6684 28.1983 55.1593 28.8184 55.1593C29.1243 55.1593 29.4055 55.0386 29.6122 54.8455C29.8106 54.6523 29.9346 54.3787 29.9346 54.081V47.6592C29.9346 47.6592 29.9346 47.6029 29.9346 47.5707H30.191C30.8028 47.5707 31.3072 47.0878 31.3072 46.4843V44.5207H26.3461L26.3296 44.5127Z" fill="#212020"/>
<path d="M28.2728 9.55562V11.7847H26.4702V9.55562C26.4702 5.49976 23.0802 2.19231 18.9129 2.19231C14.7455 2.19231 11.3472 5.49172 11.3472 9.55562V11.7847H9.54468V9.55562C9.54468 4.52604 13.7451 0.437988 18.9129 0.437988C24.0807 0.437988 28.281 4.52604 28.281 9.55562H28.2728Z" fill="url(#paint2_linear_1160_778)"/>
<defs>
<linearGradient id="paint0_linear_1160_778" x1="44.2556" y1="-3.85921" x2="10.5609" y2="50.1557" gradientUnits="userSpaceOnUse">
<stop stop-color="#FFF33B"/>
<stop offset="0.04" stop-color="#FEE62D"/>
<stop offset="0.12" stop-color="#FDD51B"/>
<stop offset="0.2" stop-color="#FDCA0F"/>
<stop offset="0.28" stop-color="#FDC70C"/>
<stop offset="0.67" stop-color="#F3903F"/>
<stop offset="0.89" stop-color="#ED683C"/>
<stop offset="1" stop-color="#E93E3A"/>
</linearGradient>
<linearGradient id="paint1_linear_1160_778" x1="32.2498" y1="-11.3432" x2="-1.43673" y2="42.6714" gradientUnits="userSpaceOnUse">
<stop stop-color="#FFF33B"/>
<stop offset="0.04" stop-color="#FEE62D"/>
<stop offset="0.12" stop-color="#FDD51B"/>
<stop offset="0.2" stop-color="#FDCA0F"/>
<stop offset="0.28" stop-color="#FDC70C"/>
<stop offset="0.67" stop-color="#F3903F"/>
<stop offset="0.89" stop-color="#ED683C"/>
<stop offset="1" stop-color="#E93E3A"/>
</linearGradient>
<linearGradient id="paint2_linear_1160_778" x1="32.4483" y1="-11.2226" x2="-1.24628" y2="42.7923" gradientUnits="userSpaceOnUse">
<stop stop-color="#FFF33B"/>
<stop offset="0.04" stop-color="#FEE62D"/>
<stop offset="0.12" stop-color="#FDD51B"/>
<stop offset="0.2" stop-color="#FDCA0F"/>
<stop offset="0.28" stop-color="#FDC70C"/>
<stop offset="0.67" stop-color="#F3903F"/>
<stop offset="0.89" stop-color="#ED683C"/>
<stop offset="1" stop-color="#E93E3A"/>
</linearGradient>
</defs>
</svg>
