<svg width="49" height="34" viewBox="0 0 49 34" fill="none" xmlns="http://www.w3.org/2000/svg">
<rect x="0.9375" y="1.41113" width="46.75" height="31.625" rx="4.8125" fill="white" stroke="#D9D9D9" stroke-width="1.375"/>
<path d="M30.7422 7.59863C35.924 7.59863 40.1248 11.848 40.125 17.0898C40.125 22.3319 35.9241 26.582 30.7422 26.582C28.419 26.582 26.2949 25.7254 24.6562 24.3105C23.0176 25.7254 20.8935 26.582 18.5703 26.582C13.3884 26.582 9.1875 22.3319 9.1875 17.0898C9.18771 11.848 13.3885 7.59863 18.5703 7.59863C20.8933 7.59866 23.0177 8.45449 24.6562 9.86914C26.2948 8.4545 28.4191 7.59865 30.7422 7.59863Z" fill="#ED0006"/>
<path d="M30.7422 7.59863C35.924 7.59863 40.1248 11.848 40.125 17.0898C40.125 22.3319 35.9241 26.582 30.7422 26.582C28.419 26.582 26.2949 25.7254 24.6562 24.3105C26.6725 22.5696 27.9531 19.9817 27.9531 17.0898C27.953 14.198 26.6727 11.61 24.6562 9.86914C26.2948 8.4545 28.4191 7.59865 30.7422 7.59863Z" fill="#F9A000"/>
<path d="M24.6556 9.86865C26.6725 11.6096 27.9525 14.1981 27.9525 17.0903C27.9525 19.9824 26.6723 22.5702 24.6556 24.311C22.6395 22.5702 21.3598 19.982 21.3597 17.0903C21.3597 14.1984 22.6393 11.6096 24.6556 9.86865Z" fill="#FF5E00"/>
</svg>
