<svg width="21" height="21" viewBox="0 0 21 21" fill="none" xmlns="http://www.w3.org/2000/svg">
<g clip-path="url(#clip0_1660_1531)">
<path d="M10.1895 0.744629C4.66816 0.744629 0.193115 5.21967 0.193115 10.741C0.193115 14.9778 2.82883 18.5936 6.54623 20.0501C6.46043 19.2575 6.37838 18.0467 6.58163 17.1841C6.7649 16.4031 7.75288 12.2171 7.75288 12.2171C7.75288 12.2171 7.45215 11.6194 7.45215 10.7331C7.45215 9.34318 8.25644 8.30439 9.25983 8.30439C10.1112 8.30439 10.5252 8.94499 10.5252 9.71388C10.5252 10.5732 9.97874 11.8539 9.69759 13.041C9.46309 14.0365 10.1974 14.8487 11.1775 14.8487C12.9539 14.8487 14.3209 12.9744 14.3209 10.2724C14.3209 7.87871 12.6028 6.20348 10.1466 6.20348C7.30387 6.20348 5.6324 8.33563 5.6324 10.5419C5.6324 11.4008 5.96436 12.3225 6.37838 12.8223C6.46043 12.9198 6.47209 13.0098 6.44877 13.1072C6.37463 13.4238 6.20302 14.1027 6.17137 14.2397C6.12847 14.423 6.02684 14.4622 5.83566 14.3726C4.58611 13.7907 3.80514 11.9672 3.80514 10.499C3.80514 7.3439 6.09723 4.45037 10.4082 4.45037C13.8757 4.45037 16.5701 6.92197 16.5701 10.2254C16.5701 13.6699 14.3988 16.4419 11.3845 16.4419C10.3732 16.4419 9.42019 15.915 9.09239 15.2939C9.09239 15.2939 8.59257 17.2037 8.47137 17.6722C8.24478 18.5386 7.63584 19.6286 7.22973 20.2921C8.18847 20.5879 9.18618 20.738 10.1895 20.7374C15.7108 20.7374 20.1859 16.2623 20.1859 10.741C20.1859 5.21967 15.7108 0.744629 10.1895 0.744629Z" fill="white"/>
</g>
<defs>
<clipPath id="clip0_1660_1531">
<rect width="19.9928" height="19.9928" fill="white" transform="translate(0.193115 0.744629)"/>
</clipPath>
</defs>
</svg>
