<svg width="49" height="34" viewBox="0 0 49 34" fill="none" xmlns="http://www.w3.org/2000/svg">
<rect x="0.8125" y="1.41113" width="46.75" height="31.625" rx="4.8125" fill="white" stroke="#D9D9D9" stroke-width="1.375"/>
<path d="M31.0664 13.0166C32.7708 13.0167 34.3779 14.5517 34.3877 17.3691C34.3877 20.449 32.8 21.8486 31.0566 21.8486C30.1999 21.8486 29.6836 21.4889 29.333 21.2363L29.3232 23.9854L26.8877 24.501V13.1719H29.0303L29.1572 13.7744C29.4981 13.4635 30.1119 13.0166 31.0664 13.0166ZM10.292 13.0166C11.1003 13.0166 11.8987 13.1433 12.707 13.4639V15.7471C11.9668 15.3488 11.0322 15.125 10.292 15.125C9.77583 15.125 9.46391 15.2706 9.46387 15.6494C9.46387 16.7376 13.1748 16.2229 13.1846 19.1182C13.1845 20.8572 11.7914 21.8574 9.76562 21.8574C8.92817 21.8574 8.01302 21.6922 7.10742 21.3037V18.9922C7.92534 19.4389 8.95744 19.7684 9.76562 19.7686C10.3109 19.7686 10.7009 19.6234 10.7012 19.1768C10.7012 18.0206 7 18.4472 7 15.7656C7.00023 14.0462 8.31502 13.0166 10.292 13.0166ZM16.0381 13.1816H17.8887V15.251H16.0381V18.7002C16.0381 20.1379 17.5766 19.6918 17.8887 19.5654V21.5371C17.5673 21.712 16.983 21.8574 16.1846 21.8574C14.7432 21.8574 13.6623 20.7991 13.6621 19.3613L13.6719 11.5781L16.0479 11.0732L16.0381 13.1816ZM38.5469 13.0166C40.8549 13.0168 42.0625 14.9797 42.0625 17.4668C42.0625 17.7002 42.043 18.2048 42.043 18.3311H37.2803C37.3874 19.4775 38.2252 19.8076 39.1699 19.8076C40.134 19.8076 40.8935 19.6037 41.5557 19.2734V21.2168C40.8935 21.5859 40.0171 21.8486 38.8584 21.8486C36.482 21.8486 34.8263 20.3715 34.8262 17.4473C34.8262 14.9795 36.2289 13.0166 38.5469 13.0166ZM20.918 13.9004C21.4924 12.8517 22.6312 13.065 22.9434 13.1816V15.416C22.6409 15.3092 21.6671 15.1741 21.0928 15.9219V21.6826H18.6582V13.1816H20.7617L20.918 13.9004ZM25.9824 21.6826H23.5381V13.1816H25.9824V21.6826ZM30.4824 15.1738C29.9274 15.1738 29.5765 15.3678 29.3232 15.6494L29.333 19.2539C29.5668 19.5065 29.9078 19.7109 30.4824 19.7109C31.3782 19.7106 31.9814 18.7391 31.9814 17.4375C31.9814 16.1649 31.3685 15.1741 30.4824 15.1738ZM38.5371 14.9893C37.9236 14.9893 37.2511 15.4453 37.251 16.543H39.7637C39.7635 15.4456 39.131 14.9895 38.5371 14.9893ZM25.9824 11.9189L23.5381 12.4434V10.4609L25.9824 9.94629V11.9189Z" fill="#6461FC"/>
</svg>
