<svg width="21" height="21" viewBox="0 0 21 21" fill="none" xmlns="http://www.w3.org/2000/svg">
<g clip-path="url(#clip0_1660_1517)">
<path d="M6.51729 18.8612C14.0604 18.8612 18.1868 12.611 18.1868 7.19211C18.1868 7.01634 18.1827 6.83682 18.1747 6.66106C18.9776 6.08042 19.6704 5.36122 20.2207 4.53724C19.473 4.86962 18.6796 5.08704 17.8665 5.18117C18.7223 4.66827 19.363 3.86251 19.67 2.91325C18.8649 3.39044 17.9845 3.72708 17.0664 3.90872C16.4479 3.25118 15.6299 2.81575 14.7391 2.66978C13.8483 2.5238 12.9341 2.67541 12.1381 3.10116C11.3421 3.52691 10.7085 4.20308 10.3354 5.02509C9.96226 5.84709 9.87037 6.76914 10.0739 7.64861C8.44368 7.56681 6.84882 7.14333 5.39273 6.40564C3.93664 5.66794 2.65182 4.6325 1.62157 3.36642C1.09797 4.26921 0.937762 5.33749 1.1735 6.35416C1.40923 7.37083 2.02322 8.2596 2.89069 8.83985C2.23939 8.81921 1.60234 8.64389 1.0322 8.32837V8.37918C1.03165 9.32654 1.35918 10.2449 1.95912 10.9781C2.55905 11.7112 3.39437 12.2141 4.32309 12.4011C3.71993 12.5661 3.08688 12.5902 2.47293 12.4714C2.73505 13.2862 3.24498 13.9987 3.93156 14.5097C4.61814 15.0206 5.44711 15.3045 6.30279 15.3217C5.45169 15.9904 4.47698 16.4846 3.43453 16.7759C2.39208 17.0672 1.30239 17.15 0.227905 17.0194C2.10461 18.2232 4.28767 18.8625 6.51729 18.8612Z" fill="white"/>
</g>
<defs>
<clipPath id="clip0_1660_1517">
<rect width="19.9928" height="19.9928" fill="white" transform="translate(0.227295 0.744629)"/>
</clipPath>
</defs>
</svg>
