<svg width="49" height="34" viewBox="0 0 49 34" fill="none" xmlns="http://www.w3.org/2000/svg">
<rect x="1.0625" y="1.41113" width="46.75" height="31.625" rx="4.8125" fill="white" stroke="#D9D9D9" stroke-width="1.375"/>
<path fill-rule="evenodd" clip-rule="evenodd" d="M14.9847 23.0787H12.0693L9.88306 14.7381C9.77929 14.3545 9.55897 14.0153 9.23487 13.8554C8.42605 13.4537 7.53479 13.134 6.5625 12.9727V12.6516H11.259C11.9072 12.6516 12.3934 13.134 12.4744 13.6942L13.6087 19.7105L16.5228 12.6516H19.3572L14.9847 23.0787ZM20.9777 23.0787H18.2243L20.4916 12.6516H23.245L20.9777 23.0787ZM26.8071 15.5402C26.8881 14.9786 27.3742 14.6575 27.9414 14.6575C28.8327 14.5769 29.8035 14.7382 30.6138 15.1385L31.0999 12.8935C30.2897 12.5724 29.3984 12.4111 28.5896 12.4111C25.9172 12.4111 23.9726 13.8554 23.9726 15.86C23.9726 17.3849 25.35 18.1856 26.3223 18.668C27.3742 19.1489 27.7793 19.47 27.6983 19.951C27.6983 20.6725 26.8881 20.9936 26.0793 20.9936C25.107 20.9936 24.1347 20.7531 23.2448 20.3514L22.7587 22.5978C23.731 22.9981 24.7829 23.1594 25.7552 23.1594C28.7516 23.2386 30.6138 21.7957 30.6138 19.6299C30.6138 16.9025 26.8071 16.7427 26.8071 15.5402ZM40.25 23.0787L38.0638 12.6516H35.7155C35.2294 12.6516 34.7433 12.9727 34.5812 13.4537L30.5329 23.0787H33.3673L33.933 21.5552H37.4156L37.7397 23.0787H40.25ZM36.1206 15.4596L36.9295 19.3895H34.6622L36.1206 15.4596Z" fill="#172B85"/>
</svg>
