<svg width="21" height="21" viewBox="0 0 21 21" fill="none" xmlns="http://www.w3.org/2000/svg">
<g clip-path="url(#clip0_1660_1536)">
<path d="M20.4696 6.7424C20.4696 6.7424 20.2743 5.36373 19.6728 4.75895C18.9114 3.96215 18.0601 3.95841 17.6698 3.91134C14.8742 3.7085 10.6765 3.7085 10.6765 3.7085H10.6682C10.6682 3.7085 6.47095 3.7085 3.67488 3.91134C3.28419 3.95841 2.43324 3.96215 1.67144 4.75895C1.07082 5.36373 0.879224 6.7424 0.879224 6.7424C0.879224 6.7424 0.675964 8.36265 0.675964 9.97956V11.4944C0.675964 13.1113 0.875059 14.7316 0.875059 14.7316C0.875059 14.7316 1.0704 16.1103 1.66769 16.7155C2.42908 17.5118 3.42872 17.4848 3.87397 17.5706C5.47506 17.723 10.6723 17.7697 10.6723 17.7697C10.6723 17.7697 14.8737 17.7617 17.6698 17.5626C18.0605 17.516 18.9114 17.5118 19.6733 16.7155C20.2743 16.1103 20.4696 14.7316 20.4696 14.7316C20.4696 14.7316 20.6687 13.1155 20.6687 11.4948V9.97998C20.6687 8.36348 20.4696 6.74281 20.4696 6.74281V6.7424ZM8.60643 13.3338V7.71496L14.0066 10.5339L8.60643 13.3338Z" fill="white"/>
</g>
<defs>
<clipPath id="clip0_1660_1536">
<rect width="19.9928" height="19.9928" fill="white" transform="translate(0.676392 0.744629)"/>
</clipPath>
</defs>
</svg>
